<?xml version="1.0" standalone="no"?>
<!DOCTYPE svg PUBLIC "-//W3C//DTD SVG 20010904//EN"
 "http://www.w3.org/TR/2001/REC-SVG-20010904/DTD/svg10.dtd">
<svg version="1.0" xmlns="http://www.w3.org/2000/svg"
 width="260.000000pt" height="260.000000pt" viewBox="0 0 260.000000 260.000000"
 preserveAspectRatio="xMidYMid meet">
<metadata>
Created by potrace 1.11, written by Peter Selinger 2001-2013
</metadata>
<g transform="translate(0.000000,260.000000) scale(0.100000,-0.100000)"
fill="#000000" stroke="none">
<path d="M0 1300 l0 -1300 1300 0 1300 0 0 1300 0 1300 -1300 0 -1300 0 0
-1300z m1005 1140 c163 -10 202 -17 280 -50 43 -19 44 -20 34 -49 -6 -17 -15
-31 -19 -31 -5 0 -11 -8 -14 -18 -4 -10 -14 -27 -24 -38 -10 -10 -29 -37 -42
-59 -13 -22 -32 -48 -41 -58 -15 -17 -17 -16 -29 13 -20 47 -48 78 -93 103
-39 20 -58 22 -254 25 l-213 4 -1 -119 c-1 -65 -4 -148 -8 -186 l-6 -67 -70
50 c-38 27 -103 73 -142 102 l-73 52 0 58 c0 84 -18 121 -69 141 -23 10 -57
17 -76 17 l-35 0 0 55 0 55 233 3 c127 1 293 3 367 4 74 1 207 -2 295 -7z
m-77 -640 c23 0 23 0 -8 -46 -18 -25 -30 -48 -27 -50 5 -5 107 11 282 45 105
21 135 21 66 0 -23 -7 -41 -15 -41 -19 0 -3 15 -11 33 -18 17 -6 44 -22 60
-34 l27 -23 -54 -42 c-30 -23 -76 -69 -102 -102 l-48 -60 -13 50 c-18 69 -38
104 -76 133 -42 32 -104 41 -290 41 l-149 0 2 -264 c0 -145 5 -272 10 -281 5
-9 28 -25 52 -35 24 -10 45 -20 46 -21 2 -1 -3 -28 -12 -58 l-17 -56 -285 0
-285 0 3 58 3 57 55 6 c63 7 95 21 110 49 6 11 10 110 11 242 0 123 4 243 7
268 l7 45 270 3 c149 1 281 3 294 5 20 2 12 10 -49 52 l-73 50 49 6 c27 4 65
5 84 3 19 -2 45 -4 58 -4z m1101 -65 c35 -8 93 -29 128 -46 59 -28 63 -32 51
-49 -7 -10 -35 -51 -62 -92 -27 -40 -52 -76 -56 -81 -3 -4 -27 12 -52 36 -75
73 -126 92 -243 92 -87 0 -107 -3 -155 -26 -114 -54 -192 -155 -221 -284 -13
-57 -22 -60 -61 -22 -7 7 -34 26 -60 42 -27 17 -48 33 -48 38 0 4 -5 7 -11 7
-5 0 -30 15 -55 34 -25 19 -50 36 -57 39 -34 11 135 188 225 233 77 39 174 74
248 90 85 18 340 12 429 -11z m-212 -591 l52 -7 -47 -68 c-34 -50 -53 -68 -70
-69 -12 0 -64 31 -118 69 l-95 70 53 4 c99 7 173 7 225 1z m693 -90 l0 -54
-307 1 c-170 0 -303 2 -298 4 11 5 330 64 382 72 18 2 72 13 120 22 49 10 91
16 96 14 4 -2 7 -29 7 -59z m-1115 -151 c14 -139 53 -280 97 -352 12 -20 42
-57 66 -83 l43 -46 -26 -89 c-14 -48 -28 -93 -30 -100 -5 -17 -103 11 -184 52
-209 107 -331 310 -348 583 l-6 102 190 0 191 0 7 -67z m998 -204 c79 -15 79
-7 10 -149 -58 -119 -161 -228 -264 -278 -82 -40 -112 -44 -117 -17 -1 11 -7
29 -12 40 -12 29 -20 55 -17 59 1 1 -4 10 -11 19 -12 14 -5 20 60 50 113 52
188 138 228 260 10 32 16 38 34 33 11 -2 51 -10 89 -17z"/>
</g>
</svg>
